<svg width="120" height="121" viewBox="0 0 120 121" fill="none" xmlns="http://www.w3.org/2000/svg">
<g clip-path="url(#clip0_339_4179)">
<path d="M117.493 42.8186L118.312 46.0433C118.616 47.2422 118.038 48.1029 117.113 48.3359C116.286 48.5463 115.602 48.1555 115.32 47.5767C115.388 48.3021 114.836 49.05 114.028 49.2529C113.013 49.5085 112.084 49.0237 111.773 47.7947L110.931 44.4798L117.489 42.8149L117.493 42.8186ZM112.716 47.2648C112.874 47.8924 113.313 48.1818 113.885 48.0352C114.377 47.9112 114.704 47.4602 114.535 46.8025L114.058 44.9158L112.239 45.3781L112.716 47.2648V47.2648ZM115.535 46.4981C115.685 47.0881 116.125 47.3324 116.617 47.2084C117.109 47.0844 117.387 46.6559 117.237 46.0658L116.771 44.228L115.069 44.6602L115.535 46.4981Z" fill="#295B4D"/>
<path d="M119.887 56.3937L120 61.0315L118.955 61.0578L118.872 57.6076L117.117 57.649L117.2 61.0277L116.155 61.054L116.072 57.6753L114.197 57.7204L114.28 61.1706L113.235 61.1969L113.122 56.5591L119.887 56.3937V56.3937Z" fill="#295B4D"/>
<path d="M116.757 72.953L112.175 70.574L112.453 69.3375L119.481 68.9391L119.188 70.2357L113.81 70.3748L118.591 72.8891L118.384 73.8099L112.987 74.0279L117.786 76.4558L117.493 77.7524L111.314 74.3812L111.593 73.1447L116.753 72.9568L116.757 72.953Z" fill="#295B4D"/>
<path d="M114.441 85.3367L112.333 89.4671L111.401 88.9936L112.968 85.9192L111.404 85.1225L109.867 88.1329L108.935 87.6594L110.469 84.6489L108.796 83.7958L107.229 86.8701L106.297 86.3966L108.405 82.2661L114.434 85.3405L114.441 85.3367Z" fill="#295B4D"/>
<path d="M107.68 96.5629L106.056 98.4871C104.696 100.099 102.7 100.287 101.181 99.0058C99.6631 97.7204 99.5241 95.7323 100.885 94.12L102.508 92.1957L107.68 96.5629V96.5629ZM101.681 94.7927C100.73 95.9165 100.99 97.2507 101.963 98.0737C102.963 98.9194 104.278 98.9682 105.256 97.8107L106.112 96.7959L102.538 93.778L101.681 94.7927Z" fill="#295B4D"/>
<path d="M97.5395 106.932L95.5025 108.413C93.7962 109.653 91.8118 109.36 90.643 107.751C89.4741 106.143 89.8161 104.177 91.5224 102.937L93.5594 101.456L97.5358 106.932H97.5395ZM92.1388 103.779C90.9474 104.643 90.8798 106 91.6314 107.034C92.4019 108.093 93.6647 108.454 94.8899 107.564L95.9648 106.782L93.2137 102.997L92.1388 103.779V103.779Z" fill="#295B4D"/>
<path d="M85.3628 114.43L84.2842 114.922L81.4805 108.762L82.5591 108.27L85.3628 114.43Z" fill="#295B4D"/>
<path d="M74.6815 116.366L73.5841 111.559L74.7417 111.296L76.2488 117.895L75.0611 118.166L70.6188 114.257L71.6862 118.936L70.5286 119.199L69.0215 112.6L70.1377 112.344L74.6778 116.366H74.6815Z" fill="#295B4D"/>
<path d="M58.566 120.139C57.2468 120.116 56.3937 119.478 55.86 118.684L56.8409 118.151C57.1867 118.662 57.8219 119.068 58.581 119.083C59.919 119.105 60.93 118.094 60.9525 116.674C60.9751 115.253 59.9979 114.205 58.6562 114.182C57.9684 114.171 57.3521 114.486 57.0439 114.765L57.0288 115.821L59.0471 115.851L59.032 116.896L55.8262 116.847L55.8675 114.31C56.5478 113.581 57.4986 113.107 58.675 113.126C60.6331 113.156 62.2041 114.573 62.1702 116.693C62.1364 118.812 60.5241 120.169 58.566 120.135V120.139Z" fill="#295B4D"/>
<path d="M2.51038 77.3617L1.69107 74.137C1.38664 72.9381 1.96542 72.0774 2.88998 71.8444C3.71681 71.6339 4.40083 72.0248 4.6827 72.6036C4.61505 71.8782 5.16753 71.1303 5.97557 70.9274C6.99032 70.6718 7.91863 71.1566 8.23057 72.3856L9.07244 75.7005L2.51414 77.3654L2.51038 77.3617ZM4.46472 73.6822C4.31439 73.0922 3.87466 72.8479 3.38608 72.9719C2.89373 73.0959 2.61562 73.5244 2.76595 74.1144L3.23198 75.9523L4.93451 75.5201L4.46848 73.6822H4.46472ZM7.28347 72.9155C7.12562 72.2879 6.6859 71.9985 6.11463 72.1451C5.62229 72.2691 5.29907 72.7201 5.46444 73.3778L5.9455 75.2645L7.76454 74.8022L7.28723 72.9155H7.28347Z" fill="#295B4D"/>
<path d="M0.11275 63.7865L0 59.1487L1.04482 59.1224L1.1275 62.5726L2.88265 62.5312L2.79996 59.1525L3.84478 59.1262L3.92746 62.5049L5.80287 62.4598L5.72019 59.0097L6.76501 58.9834L6.87776 63.6212L0.11275 63.7865V63.7865Z" fill="#295B4D"/>
<path d="M3.24335 47.231L7.82477 49.6101L7.54665 50.8466L0.518555 51.2449L0.811705 49.9483L6.18989 49.813L1.40928 47.2987L1.61599 46.3779L7.01296 46.1599L2.21357 43.732L2.50672 42.4354L8.68543 45.8066L8.40731 47.0431L3.24711 47.231H3.24335Z" fill="#295B4D"/>
<path d="M5.55469 34.8436L7.66312 30.7132L8.59518 31.1867L7.02796 34.261L8.59143 35.0578L10.1286 32.0474L11.0607 32.5209L9.52725 35.5314L11.1997 36.3845L12.7669 33.3102L13.699 33.7837L11.5906 37.9141L5.5622 34.8398L5.55469 34.8436Z" fill="#295B4D"/>
<path d="M12.3125 23.6174L13.9361 21.6931C15.2966 20.0808 17.2923 19.8891 18.8107 21.1745C20.329 22.4598 20.4681 24.448 19.1076 26.0603L17.484 27.9846L12.3125 23.6174V23.6174ZM18.3108 25.3876C19.2617 24.2638 19.0023 22.9296 18.0289 22.1065C17.0292 21.2609 15.7138 21.212 14.7366 22.3696L13.8797 23.3844L17.4539 26.4023L18.3108 25.3876Z" fill="#295B4D"/>
<path d="M22.46 13.2407L24.497 11.7599C26.2033 10.5196 28.1877 10.8128 29.3565 12.4213C30.5254 14.0299 30.1833 15.9955 28.4771 17.2358L26.44 18.7166L22.4637 13.2407H22.46ZM27.8607 16.3939C29.0521 15.5295 29.1197 14.1727 28.3681 13.1392C27.5976 12.0793 26.3348 11.7185 25.1096 12.6093L24.0347 13.391L26.7858 17.1756L27.8607 16.3939V16.3939Z" fill="#295B4D"/>
<path d="M34.6258 5.74277L35.7045 5.25043L38.512 11.4103L37.4295 11.9027L34.6221 5.74277H34.6258Z" fill="#295B4D"/>
<path d="M45.3065 3.81093L46.4039 8.61784L45.2464 8.88093L43.7393 2.28129L44.9269 2.01069L49.3693 5.91936L48.3019 1.24023L49.4595 0.977142L50.9665 7.57678L49.8503 7.83235L45.3102 3.81093H45.3065Z" fill="#295B4D"/>
<path d="M61.4145 0.0300612C62.7337 0.0488529 63.5869 0.691529 64.1243 1.48078L63.1434 2.01446C62.7976 1.50333 62.1624 1.09743 61.4033 1.08615C60.0653 1.06736 59.0543 2.07836 59.0355 3.49525C59.013 4.9159 59.9939 5.96448 61.3319 5.98327C62.0234 5.99454 62.636 5.67884 62.9442 5.39697L62.9592 4.34088L60.941 4.31081L60.956 3.26599L64.1619 3.31109L64.1243 5.84797C63.444 6.57709 62.4932 7.05064 61.3168 7.0356C59.3587 7.00554 57.7877 5.5924 57.8178 3.4727C57.8441 1.35675 59.4564 -5.48123e-06 61.4145 0.0300612Z" fill="#295B4D"/>
<path d="M102.243 18.0425C102.2 18.017 102.134 18.0362 102.126 18.0957C102.124 18.1233 102.122 18.151 102.12 18.1786C102.115 18.1829 102.109 18.185 102.103 18.1914C101.524 18.7995 101.076 19.5288 100.729 20.2922C100.397 21.0236 100.17 21.804 100.072 22.6035C99.9805 23.3541 100.002 24.1195 100.146 24.8638C100.299 25.6547 100.599 26.4011 101.007 27.0943C101.507 27.9427 102.139 28.6975 102.768 29.4502C102.8 29.4864 102.842 29.4906 102.877 29.4779C102.896 29.6076 102.915 29.7373 102.934 29.867C102.993 30.2327 103.044 30.6027 103.121 30.9642C102.3 30.1987 101.48 29.4332 100.669 28.6571C99.8359 27.8619 99.0066 27.0581 98.1816 26.2544C98.2092 25.9078 98.1944 25.5569 98.1731 25.2125C98.1625 25.0658 98.1497 24.9212 98.1348 24.7745C98.4176 24.5044 98.6558 24.1685 98.8769 23.8495C99.1236 23.4923 99.3447 23.1138 99.5276 22.7183C99.8465 22.0251 100.034 21.2639 100.017 20.4984C99.9975 19.6841 99.6998 18.9441 99.2554 18.2701C98.7642 17.5237 98.1582 16.8454 97.548 16.1926C96.825 15.4229 96.051 14.6957 95.226 14.0323C95.1452 13.9685 95.0559 14.0536 95.0666 14.1322C94.9305 14.515 94.8178 14.9041 94.7093 15.2932C94.5966 15.6951 94.4924 16.1012 94.4095 16.5116C94.2543 17.2707 94.1671 18.0425 94.2033 18.8186C94.2394 19.565 94.401 20.3049 94.7136 20.9875C95.0368 21.6934 95.5003 22.3271 96.0213 22.899C96.623 23.5603 97.3013 24.1493 97.9796 24.7298C97.986 24.7362 97.9924 24.7383 97.9987 24.7404C98.0009 24.7553 98.003 24.7702 98.003 24.7872C98.0009 24.7893 97.9966 24.7936 97.9945 24.7957C97.9817 24.817 97.9924 24.8404 98.0094 24.8489C98.0158 24.919 98.0264 24.9892 98.0328 25.0594C98.0668 25.4294 98.0753 25.7993 98.0944 26.1672C96.7357 24.8425 95.3876 23.5029 94.0587 22.1484C92.8318 20.8961 91.6198 19.6288 90.4269 18.3424C90.3631 17.9511 90.2802 17.5662 90.2058 17.1771C90.1867 17.0772 90.1718 16.9773 90.1526 16.8773C90.1782 16.8518 90.1867 16.8093 90.1675 16.7774C90.478 16.603 90.7352 16.3415 90.9776 16.0821C91.2307 15.8163 91.4582 15.525 91.6559 15.2167C92.0493 14.6064 92.3215 13.909 92.3704 13.1797C92.4214 12.3929 92.2152 11.6126 91.943 10.8811C91.6432 10.0667 91.2647 9.27575 90.8416 8.51665C90.361 7.65762 89.8124 6.83687 89.1979 6.06927C89.1958 6.04588 89.1915 6.02461 89.1915 6.00335C89.1852 5.92468 89.0618 5.92468 89.0555 6.00335C89.0533 6.02249 89.0512 6.04162 89.0491 6.06076C89.0214 6.0884 89.0066 6.12455 89.0236 6.16282C88.643 6.8156 88.3453 7.52154 88.0922 8.23385C87.8286 8.97806 87.6287 9.75204 87.5288 10.5367C87.3353 12.0697 87.5585 13.6581 88.3198 15.0189C88.7386 15.7653 89.3085 16.4202 90.0251 16.8943C90.0378 16.9539 90.0463 17.0134 90.0591 17.0729C90.1356 17.4514 90.21 17.8363 90.3057 18.2126C89.4531 17.2919 88.6132 16.3628 87.786 15.4208C86.9547 14.4746 86.1467 13.5092 85.3472 12.5354C85.3429 12.4758 85.3387 12.4163 85.3365 12.3546C85.7023 12.0612 85.9659 11.6062 86.136 11.1894C86.3593 10.643 86.4486 10.0519 86.4273 9.46074C86.3848 8.23173 85.866 7.07501 85.2515 6.03099C84.8943 5.42286 84.5009 4.84238 84.1203 4.24914C84.1054 4.18747 84.0905 4.12581 84.0756 4.06415C84.0607 3.99824 83.9608 3.94933 83.9183 4.02162L83.914 4.02588C83.8566 4.03651 83.8077 4.10668 83.8354 4.1726C83.2953 5.1507 82.9827 6.2415 82.9508 7.36206C82.921 8.35293 83.1145 9.33741 83.4973 10.2475C82.987 9.60958 82.4745 8.96956 81.9642 8.33166C81.7601 8.07651 81.5538 7.82348 81.3476 7.57044C81.3816 7.33655 81.3731 7.0984 81.3561 6.86451C81.3306 6.54131 81.2731 6.22449 81.1881 5.91405C81.018 5.28891 80.7309 4.69567 80.3503 4.17047C79.974 3.64952 79.5062 3.19024 78.9682 2.8394C78.3707 2.45028 77.6903 2.22489 77.0099 2.02076C76.6101 1.90169 76.2083 1.78474 75.8149 1.64228C75.6469 1.58062 75.4789 1.51045 75.3173 1.4339C75.1536 1.30845 74.9899 1.18725 74.8219 1.06605C74.756 1.01714 74.6858 1.05329 74.6561 1.10858C74.6327 1.1107 74.6093 1.12559 74.5986 1.14472C74.5668 1.17662 74.554 1.22339 74.5923 1.26167C74.5987 1.26805 74.605 1.27443 74.6114 1.2808C74.6731 1.5636 74.7666 1.84428 74.8644 2.11644C74.975 2.41838 75.1026 2.71182 75.245 2.99887C75.5364 3.5751 75.8829 4.12156 76.2869 4.62763C77.0907 5.63975 78.0986 6.49028 79.234 7.10691C79.5572 7.28127 79.8868 7.43649 80.2291 7.57044C80.3971 7.63636 80.5672 7.69589 80.7394 7.7533C80.9096 7.80859 81.0839 7.87663 81.2668 7.86812C81.2668 7.86812 81.2732 7.866 81.2774 7.866C82.23 9.03972 83.1677 10.2241 84.1139 11.4042C84.3542 11.7635 84.6263 12.0995 84.9283 12.4099C85.6023 13.2371 86.2849 14.06 86.9823 14.868C87.3735 15.3187 87.7669 15.7674 88.1624 16.2097C88.0497 16.1522 87.9349 16.097 87.8243 16.0417C87.5607 15.9098 87.297 15.7823 87.027 15.6611C86.927 15.6164 86.8292 15.5739 86.7293 15.5292C86.0935 14.7276 85.4067 13.9175 84.5009 13.4157C84.0544 13.169 83.5611 13.0202 83.0529 12.9798C82.5638 12.9415 82.0705 12.9968 81.5921 13.0967C81.3199 13.1563 81.052 13.2286 80.7862 13.3072C80.5778 13.371 80.361 13.4306 80.1568 13.5156C80.1462 13.5135 80.1356 13.5114 80.1249 13.5092C80.0994 13.505 80.0867 13.522 80.0824 13.539C80.0739 13.5305 80.0654 13.522 80.0526 13.5177C80.008 13.4859 79.9442 13.5454 79.9825 13.5879L79.9867 13.5922L79.9846 13.5943C79.9442 13.6134 79.957 13.6815 80.0037 13.673C80.0207 13.6687 80.0378 13.6645 80.0569 13.6623C80.2355 13.8409 80.4226 14.011 80.6055 14.1897C80.8181 14.3938 81.0329 14.6 81.2498 14.7999C81.6453 15.1656 82.0578 15.5144 82.5192 15.7929C82.9593 16.0587 83.4356 16.2628 83.9438 16.35C84.3967 16.4287 84.8666 16.4138 85.3195 16.3309C85.8468 16.2331 86.355 16.0523 86.8356 15.8142C86.8462 15.8078 86.8569 15.8014 86.8654 15.7929C87.1226 15.9098 87.3778 16.0289 87.6308 16.1544C87.9243 16.299 88.2113 16.4584 88.5069 16.5966C89.991 18.2552 91.5177 19.8754 93.0699 21.4702C92.5405 21.2894 92.011 21.1172 91.4773 20.9492C90.6055 19.5799 89.6508 18.1361 88.1199 17.4387C87.4628 17.1389 86.7463 17.0347 86.0297 17.0921C85.3344 17.1452 84.6561 17.3345 83.9991 17.5577C83.6057 17.6917 83.2145 17.8405 82.8254 17.9873C82.5978 18.0744 82.3682 18.1595 82.1407 18.2467C81.9408 18.3232 81.7409 18.3998 81.5538 18.4976C81.5389 18.4954 81.5241 18.5018 81.5134 18.5125C81.4985 18.5103 81.4837 18.5082 81.4666 18.5082C81.4347 18.5061 81.4199 18.5507 81.4475 18.5656C81.4369 18.5933 81.4624 18.6315 81.4943 18.6252C81.5092 18.623 81.5219 18.6188 81.5368 18.6166C82.1662 19.1567 82.7956 19.7011 83.4399 20.2263C84.048 20.7238 84.6795 21.1937 85.3663 21.5786C86.5974 22.2654 88.037 22.6715 89.4382 22.3164C90.1718 22.1314 90.8501 21.7508 91.3391 21.1682C91.3583 21.1491 91.3604 21.1257 91.3604 21.1044C92.0238 21.3128 92.6829 21.5254 93.3421 21.7466C95.4323 23.8835 97.5692 25.9737 99.7359 28.0298C99.8146 28.1085 99.8975 28.1829 99.9783 28.2595C99.8486 28.2488 99.7168 28.2488 99.5892 28.2446C99.3872 28.2382 99.1873 28.234 98.9853 28.2276C98.828 28.2233 98.6685 28.217 98.5091 28.2106C97.9626 27.6386 97.414 27.0602 96.7591 26.6095C96.4316 26.3841 96.0787 26.1884 95.7044 26.0566C95.3132 25.9163 94.9028 25.8419 94.4924 25.8057C92.9891 25.6675 91.4518 25.912 90.0527 26.4691C89.6593 26.6243 89.2787 26.8051 88.9109 27.0113C88.728 27.1134 88.5473 27.2218 88.3708 27.3388C88.2432 27.4238 88.1029 27.5046 87.9902 27.6131C87.971 27.611 87.954 27.611 87.9349 27.6088C87.8987 27.6067 87.8839 27.6429 87.8987 27.6662C87.8668 27.6854 87.8498 27.7364 87.8902 27.7683C88.4814 28.2744 89.1618 28.6911 89.8507 29.0483C90.5481 29.4098 91.2796 29.7118 92.0323 29.9371C92.7382 30.1498 93.4761 30.322 94.216 30.339C94.9687 30.356 95.6896 30.1965 96.3615 29.8606C97.1184 29.4821 97.7819 28.942 98.4325 28.4062C98.4346 28.4041 98.4389 28.3998 98.441 28.3977C98.4708 28.4104 98.5005 28.4062 98.5261 28.3934C98.6366 28.3977 98.7515 28.4019 98.8641 28.4041C99.0832 28.4104 99.3022 28.4168 99.5212 28.4232C99.7317 28.4296 99.9464 28.4445 100.157 28.4211C101.167 29.3758 102.181 30.3305 103.2 31.2767L103.202 31.2874C103.202 31.2874 103.221 31.3065 103.229 31.3065C103.31 31.383 103.391 31.4596 103.474 31.534C104.743 32.7141 106.006 33.9091 107.312 35.0488C107.346 35.0786 107.401 35.0233 107.369 34.9914C106.019 33.6582 104.631 32.3633 103.242 31.0683C103.198 30.7047 103.127 30.3411 103.072 29.9797C103.04 29.7777 103.015 29.5778 102.985 29.3737C102.987 29.3715 102.989 29.3694 102.991 29.3673C103.78 27.9746 104.575 26.5202 104.79 24.9105C104.892 24.1493 104.839 23.386 104.65 22.6439C104.454 21.8742 104.144 21.1299 103.782 20.424C103.355 19.5926 102.847 18.7867 102.266 18.0532C102.258 18.0447 102.249 18.0362 102.239 18.034L102.243 18.0425Z" fill="#295B4D"/>
<path d="M15.5999 102.065C15.6424 102.09 15.7084 102.071 15.7169 102.011C15.719 101.984 15.7211 101.956 15.7232 101.928C15.7275 101.924 15.7339 101.922 15.7402 101.916C16.3186 101.308 16.7673 100.578 17.1138 99.8149C17.4456 99.0835 17.6731 98.3031 17.7709 97.5036C17.8623 96.753 17.841 95.9875 17.6965 95.2433C17.5434 94.4523 17.2436 93.706 16.8353 93.0128C16.3356 92.1644 15.7041 91.4096 15.0747 90.6569C15.0428 90.6207 15.0003 90.6165 14.9663 90.6292C14.9471 90.4995 14.928 90.3698 14.9089 90.2401C14.8493 89.8744 14.7983 89.5044 14.7217 89.1429C15.5425 89.9084 16.3633 90.6739 17.1734 91.45C18.0069 92.2452 18.8362 93.049 19.6612 93.8527C19.6335 94.1993 19.6484 94.5502 19.6697 94.8946C19.6803 95.0413 19.6931 95.1859 19.708 95.3326C19.4252 95.6027 19.187 95.9386 18.9659 96.2576C18.7192 96.6148 18.4981 96.9933 18.3152 97.3888C17.9963 98.082 17.8092 98.8432 17.8262 99.6087C17.8453 100.423 18.143 101.163 18.5874 101.837C19.0786 102.583 19.6846 103.262 20.2948 103.914C21.0178 104.684 21.7917 105.411 22.6167 106.075C22.6975 106.139 22.7869 106.054 22.7762 105.975C22.9123 105.592 23.025 105.203 23.1334 104.814C23.2461 104.412 23.3503 104.006 23.4333 103.595C23.5885 102.836 23.6757 102.065 23.6395 101.288C23.6034 100.542 23.4418 99.8021 23.1292 99.1196C22.806 98.4137 22.3425 97.78 21.8215 97.208C21.2198 96.5468 20.5415 95.9578 19.8632 95.3773C19.8568 95.3709 19.8504 95.3688 19.844 95.3667C19.8419 95.3518 19.8398 95.3369 19.8398 95.3199C19.8419 95.3177 19.8462 95.3135 19.8483 95.3114C19.861 95.2901 19.8504 95.2667 19.8334 95.2582C19.827 95.188 19.8164 95.1179 19.81 95.0477C19.776 94.6777 19.7675 94.3078 19.7484 93.9399C21.1071 95.2646 22.4551 96.6042 23.7841 97.9586C25.011 99.211 26.223 100.478 27.4158 101.765C27.4796 102.156 27.5626 102.541 27.637 102.93C27.6561 103.03 27.671 103.13 27.6901 103.23C27.6646 103.255 27.6561 103.298 27.6753 103.33C27.3648 103.504 27.1075 103.766 26.8651 104.025C26.6121 104.291 26.3846 104.582 26.1868 104.89C25.7935 105.501 25.5213 106.198 25.4724 106.927C25.4214 107.714 25.6276 108.495 25.8998 109.226C26.1996 110.04 26.5781 110.831 27.0012 111.59C27.4818 112.449 28.0303 113.27 28.6449 114.038C28.647 114.061 28.6512 114.082 28.6512 114.104C28.6576 114.182 28.7809 114.182 28.7873 114.104C28.7894 114.085 28.7916 114.065 28.7937 114.046C28.8213 114.019 28.8362 113.983 28.8192 113.944C29.1998 113.291 29.4975 112.586 29.7505 111.873C30.0142 111.129 30.2141 110.355 30.314 109.57C30.5075 108.037 30.2842 106.449 29.523 105.088C29.1041 104.342 28.5343 103.687 27.8177 103.213C27.805 103.153 27.7964 103.094 27.7837 103.034C27.7071 102.656 27.6327 102.271 27.537 101.894C28.3897 102.815 29.2296 103.744 30.0567 104.686C30.8881 105.632 31.6961 106.598 32.4956 107.572C32.4999 107.631 32.5041 107.691 32.5062 107.752C32.1405 108.046 31.8768 108.501 31.7067 108.918C31.4835 109.464 31.3942 110.055 31.4154 110.646C31.458 111.875 31.9768 113.032 32.5913 114.076C32.9485 114.684 33.3419 115.265 33.7225 115.858C33.7374 115.92 33.7523 115.981 33.7671 116.043C33.782 116.109 33.882 116.158 33.9245 116.085L33.9287 116.081C33.9862 116.071 34.0351 116 34.0074 115.934C34.5475 114.956 34.8601 113.866 34.892 112.745C34.9217 111.754 34.7282 110.77 34.3455 109.86C34.8558 110.498 35.3683 111.138 35.8786 111.775C36.0827 112.031 36.289 112.284 36.4952 112.537C36.4612 112.771 36.4697 113.009 36.4867 113.243C36.5122 113.566 36.5696 113.883 36.6547 114.193C36.8248 114.818 37.1118 115.411 37.4924 115.937C37.8688 116.458 38.3366 116.917 38.8745 117.268C39.472 117.657 40.1525 117.882 40.8329 118.086C41.2326 118.205 41.6345 118.322 42.0279 118.465C42.1959 118.526 42.3638 118.597 42.5254 118.673C42.6892 118.799 42.8529 118.92 43.0209 119.041C43.0868 119.09 43.1569 119.054 43.1867 118.999C43.2101 118.996 43.2335 118.981 43.2441 118.962C43.276 118.93 43.2888 118.884 43.2505 118.845C43.2441 118.839 43.2377 118.833 43.2314 118.826C43.1697 118.543 43.0761 118.263 42.9783 117.991C42.8678 117.689 42.7402 117.395 42.5977 117.108C42.3064 116.532 41.9598 115.986 41.5558 115.479C40.7521 114.467 39.7442 113.617 38.6088 113C38.2856 112.826 37.956 112.671 37.6136 112.537C37.4457 112.471 37.2756 112.411 37.1033 112.354C36.9332 112.298 36.7589 112.23 36.576 112.239C36.576 112.239 36.5696 112.241 36.5654 112.241C35.6128 111.067 34.6751 109.883 33.7289 108.703C33.4886 108.344 33.2164 108.008 32.9145 107.697C32.2404 106.87 31.5579 106.047 30.8605 105.239C30.4692 104.788 30.0759 104.34 29.6804 103.897C29.7931 103.955 29.9079 104.01 30.0185 104.065C30.2821 104.197 30.5458 104.325 30.8158 104.446C30.9158 104.491 31.0136 104.533 31.1135 104.578C31.7493 105.379 32.4361 106.19 33.3419 106.691C33.7884 106.938 34.2817 107.087 34.7899 107.127C35.279 107.166 35.7723 107.11 36.2507 107.01C36.5228 106.951 36.7908 106.879 37.0565 106.8C37.2649 106.736 37.4818 106.677 37.6859 106.591C37.6966 106.594 37.7072 106.596 37.7178 106.598C37.7433 106.602 37.7561 106.585 37.7604 106.568C37.7689 106.577 37.7774 106.585 37.7901 106.589C37.8348 106.621 37.8986 106.562 37.8603 106.519L37.856 106.515L37.8582 106.513C37.8986 106.494 37.8858 106.426 37.839 106.434C37.822 106.438 37.805 106.443 37.7859 106.445C37.6073 106.266 37.4201 106.096 37.2373 105.917C37.0247 105.713 36.8099 105.507 36.593 105.307C36.1975 104.941 35.785 104.593 35.3236 104.314C34.8835 104.048 34.4072 103.844 33.899 103.757C33.4461 103.678 32.9762 103.693 32.5232 103.776C31.9959 103.874 31.4877 104.055 31.0072 104.293C30.9966 104.299 30.9859 104.306 30.9774 104.314C30.7201 104.197 30.465 104.078 30.2119 103.953C29.9185 103.808 29.6315 103.649 29.3359 103.51C27.8517 101.852 26.325 100.232 24.7728 98.6369C25.3023 98.8177 25.8317 98.9899 26.3654 99.1579C27.2372 100.527 28.1919 101.971 29.7229 102.668C30.3799 102.968 31.0965 103.072 31.8131 103.015C32.5084 102.962 33.1867 102.773 33.8437 102.549C34.2371 102.415 34.6283 102.267 35.0174 102.12C35.2449 102.033 35.4746 101.948 35.7021 101.86C35.902 101.784 36.1018 101.707 36.2889 101.61C36.3038 101.612 36.3187 101.605 36.3293 101.595C36.3442 101.597 36.3591 101.599 36.3761 101.599C36.408 101.601 36.4229 101.556 36.3953 101.541C36.4059 101.514 36.3804 101.476 36.3485 101.482C36.3336 101.484 36.3208 101.488 36.306 101.49C35.6766 100.95 35.0472 100.406 34.4029 99.8808C33.7948 99.3833 33.1633 98.9133 32.4765 98.5285C31.2453 97.8417 29.8058 97.4356 28.4046 97.7907C27.671 97.9756 26.9927 98.3563 26.5037 98.9389C26.4845 98.958 26.4824 98.9814 26.4824 99.0027C25.819 98.7943 25.1598 98.5816 24.5007 98.3605C22.4105 96.2236 20.2736 94.1334 18.1068 92.0772C18.0282 91.9986 17.9452 91.9242 17.8644 91.8476C17.9941 91.8582 18.126 91.8582 18.2536 91.8625C18.4556 91.8689 18.6554 91.8731 18.8574 91.8795C19.0148 91.8838 19.1742 91.8901 19.3337 91.8965C19.8802 92.4685 20.4288 93.0468 21.0837 93.4976C21.4111 93.723 21.7641 93.9186 22.1383 94.0505C22.5296 94.1908 22.94 94.2652 23.3503 94.3014C24.8536 94.4396 26.391 94.1951 27.7901 93.638C28.1834 93.4827 28.5641 93.302 28.9319 93.0958C29.1148 92.9937 29.2955 92.8852 29.472 92.7683C29.5996 92.6832 29.7399 92.6024 29.8526 92.494C29.8717 92.4961 29.8887 92.4961 29.9079 92.4983C29.944 92.5004 29.9589 92.4642 29.944 92.4408C29.9759 92.4217 29.9929 92.3707 29.9525 92.3388C29.3614 91.8327 28.681 91.416 27.9921 91.0587C27.2946 90.6973 26.5632 90.3953 25.8105 90.1699C25.1045 89.9573 24.3667 89.7851 23.6268 89.7681C22.874 89.7511 22.1532 89.9105 21.4813 90.2465C20.7243 90.625 20.0609 91.1651 19.4103 91.7009C19.4081 91.703 19.4039 91.7073 19.4018 91.7094C19.372 91.6966 19.3422 91.7009 19.3167 91.7136C19.2061 91.7094 19.0913 91.7051 18.9786 91.703C18.7596 91.6966 18.5406 91.6903 18.3216 91.6839C18.1111 91.6775 17.8963 91.6626 17.6858 91.686C16.6758 90.7313 15.6616 89.7766 14.6431 88.8304L14.6409 88.8197C14.6409 88.8197 14.6218 88.8006 14.6133 88.8006C14.5325 88.7241 14.4517 88.6475 14.3688 88.5731C13.0994 87.393 11.8363 86.198 10.5308 85.0583C10.4968 85.0285 10.4415 85.0838 10.4734 85.1157C11.8236 86.4489 13.2121 87.7438 14.6005 89.0387C14.6452 89.4023 14.7154 89.7659 14.7706 90.1274C14.8025 90.3294 14.8281 90.5293 14.8578 90.7334C14.8557 90.7355 14.8536 90.7377 14.8514 90.7398C14.0626 92.1325 13.2673 93.5869 13.0526 95.1966C12.9505 95.9578 13.0037 96.7211 13.1929 97.4632C13.3885 98.2329 13.699 98.9771 14.0605 99.6831C14.4879 100.514 14.996 101.32 15.5765 102.054C15.585 102.062 15.5935 102.071 15.6042 102.073L15.5999 102.065Z" fill="#295B4D"/>
<path d="M100.585 60.7009H87.5771V61.1181H100.585V60.7009Z" fill="#295B4D"/>
<path d="M30.2625 60.7008H17.2549V61.118H30.2625V60.7008Z" fill="#295B4D"/>
<path d="M38.1426 73.6354V72.3367L40.1091 72.077C40.5791 72.0275 40.8883 71.8791 41.0367 71.6317C41.1851 71.3596 41.2593 70.8525 41.2593 70.1104V50.408C41.2593 49.7896 41.1728 49.3567 40.9996 49.1094C40.8512 48.862 40.5296 48.7136 40.0349 48.6641L38.1426 48.4415V47.1429H48.1236C50.3499 47.1429 52.168 47.3778 53.578 47.8478C54.988 48.2931 56.0269 48.9733 56.6948 49.8886C57.3874 50.8038 57.7337 51.9417 57.7337 53.3022C57.7337 54.3411 57.4863 55.2811 56.9916 56.1221C56.5216 56.9631 55.8661 57.6681 55.0251 58.2371C54.2088 58.7813 53.2564 59.177 52.168 59.4244V59.6099C54.4438 59.8078 56.1877 60.4509 57.3997 61.5393C58.6118 62.6277 59.2178 64.1243 59.2178 66.029C59.2178 67.6616 58.7973 69.0468 57.9563 70.1847C57.1153 71.3225 55.8908 72.1883 54.283 72.782C52.6751 73.3509 50.6962 73.6354 48.3463 73.6354H38.1426ZM48.1236 72.077C49.5089 72.077 50.6715 71.8544 51.6115 71.4091C52.5514 70.9638 53.2564 70.3083 53.7264 69.4426C54.2211 68.5521 54.4685 67.4389 54.4685 66.1032C54.4685 64.7922 54.2211 63.7285 53.7264 62.9122C53.2564 62.0959 52.5514 61.5022 51.6115 61.1312C50.6962 60.7602 49.5584 60.5746 48.1979 60.5746C47.1342 60.5746 46.3179 60.6241 45.749 60.723V71.8915C46.0211 71.9409 46.3674 71.9904 46.7879 72.0399C47.2084 72.0646 47.6537 72.077 48.1236 72.077ZM47.5671 59.0905C48.6802 59.0905 49.6449 58.8926 50.4612 58.4968C51.2775 58.101 51.9083 57.495 52.3535 56.6787C52.7988 55.8376 53.0214 54.7987 53.0214 53.5619C53.0214 52.3498 52.8235 51.3851 52.4278 50.6678C52.0567 49.9504 51.4754 49.4433 50.6838 49.1465C49.917 48.8249 48.9028 48.6641 47.6413 48.6641H45.749V59.0534C45.9963 59.0781 46.2561 59.0905 46.5282 59.0905C46.825 59.0905 47.1713 59.0905 47.5671 59.0905Z" fill="#295B4D"/>
<path d="M62.7822 73.6354V72.3367L64.7487 72.077C65.2187 72.0275 65.5279 71.8791 65.6763 71.6317C65.8247 71.3844 65.899 70.902 65.899 70.1847V50.408C65.899 49.7649 65.8124 49.332 65.6392 49.1094C65.4908 48.862 65.1692 48.7136 64.6745 48.6641L62.7822 48.4415V47.1429H80.2954L81.5199 53.4135L79.9986 53.7845C79.6523 52.7456 79.2936 51.8922 78.9226 51.2243C78.5763 50.5565 78.1805 50.037 77.7352 49.6659C77.29 49.2949 76.7582 49.0352 76.1398 48.8868C75.5213 48.7383 74.7545 48.6641 73.8393 48.6641H70.3886V59.3131H73.4682C74.2351 59.3131 74.8164 59.2389 75.2121 59.0905C75.6079 58.942 75.9048 58.6452 76.1027 58.2C76.3253 57.73 76.5603 57.025 76.8076 56.085L78.0692 55.9366V64.0624L76.7705 64.248C76.6221 63.308 76.4366 62.603 76.214 62.133C76.0161 61.663 75.7069 61.3538 75.2864 61.2054C74.8658 61.0322 74.2598 60.9457 73.4682 60.9457H70.3886V72.1141H74.8782C75.744 72.1141 76.4737 72.0399 77.0674 71.8915C77.661 71.7183 78.1681 71.4338 78.5886 71.0381C79.0092 70.6423 79.3802 70.0981 79.7018 69.4055C80.0233 68.7129 80.3325 67.8223 80.6294 66.734H82.1878L81.4086 73.6354H62.7822Z" fill="#295B4D"/>
</g>
<defs>
<clipPath id="clip0_339_4179">
<rect width="120" height="120.139" fill="white"/>
</clipPath>
</defs>
</svg>
