<svg width="67" height="24" viewBox="0 0 67 24" fill="none" xmlns="http://www.w3.org/2000/svg">
<path d="M22.0386 23.9873C22.1064 23.9703 22.153 23.8856 22.1022 23.8178C22.0768 23.7882 22.0513 23.7585 22.0259 23.7289C22.0259 23.7204 22.0302 23.7119 22.0302 23.6992C22.0005 22.5173 21.7209 21.3438 21.3057 20.2381C20.9075 19.179 20.3568 18.1749 19.6578 17.281C19.0011 16.4422 18.2174 15.7009 17.332 15.1035C16.3915 14.4681 15.3493 14.0232 14.2521 13.7394C12.9092 13.392 11.5281 13.2692 10.1512 13.1463C10.0835 13.1421 10.0369 13.1802 10.0157 13.2268C9.86741 13.1167 9.71914 13.0065 9.57086 12.8964C9.14722 12.5913 8.72781 12.2736 8.29146 11.9898C9.87164 11.9347 11.4518 11.8796 13.032 11.8457C14.6546 11.8076 16.2813 11.7822 17.9039 11.761C18.2216 12.1338 18.5859 12.4685 18.9503 12.7905C19.107 12.926 19.2638 13.0573 19.4248 13.1887C19.412 13.7394 19.5095 14.3113 19.6069 14.8493C19.7171 15.4509 19.8738 16.0482 20.0856 16.6244C20.4584 17.6327 21.0304 18.5774 21.8099 19.323C22.6402 20.1152 23.6739 20.5558 24.7881 20.7846C26.0209 21.0387 27.3002 21.1108 28.5585 21.1531C30.0454 21.1997 31.5409 21.1531 33.0236 20.9921C33.1677 20.9752 33.1719 20.8015 33.083 20.7337C32.8372 20.2169 32.5619 19.717 32.2823 19.2213C31.9942 18.7087 31.6934 18.2003 31.3672 17.7089C30.7656 16.7981 30.0836 15.9423 29.2744 15.2052C28.4949 14.4977 27.5968 13.9216 26.6055 13.553C25.5803 13.1717 24.4873 13.0023 23.3985 12.9514C22.1403 12.8921 20.8778 12.9811 19.6239 13.0785C19.6112 13.0785 19.6027 13.0828 19.5942 13.087C19.5773 13.0743 19.5603 13.0616 19.5434 13.0446C19.5434 13.0404 19.5434 13.0319 19.5434 13.0277C19.5349 12.9938 19.501 12.9811 19.4756 12.9896C19.3993 12.926 19.3188 12.8667 19.2426 12.8032C18.8401 12.4685 18.4631 12.1084 18.0776 11.761C20.7508 11.7271 23.4282 11.7186 26.1013 11.7441C28.5712 11.7695 31.041 11.8245 33.5108 11.9177C33.9641 12.2439 34.4301 12.5447 34.8919 12.8582C35.0105 12.9387 35.1249 13.0235 35.2435 13.1039C35.2435 13.1548 35.2774 13.2056 35.3283 13.2183C35.1927 13.7013 35.1969 14.2181 35.2139 14.718C35.2266 15.2349 35.2901 15.7517 35.4003 16.2558C35.6163 17.2556 36.04 18.2215 36.7178 18.9968C37.4507 19.8314 38.4335 20.4033 39.4333 20.8608C40.5433 21.3734 41.7083 21.7844 42.886 22.119C44.2205 22.4961 45.5846 22.7672 46.9614 22.9197C46.9869 22.9409 47.0123 22.9578 47.0335 22.979C47.1182 23.051 47.241 22.9282 47.169 22.8435C47.1521 22.8223 47.1351 22.8011 47.1182 22.7799C47.1182 22.7248 47.097 22.674 47.0419 22.6528C46.7708 21.6234 46.3641 20.6236 45.9066 19.6619C45.4279 18.6579 44.8559 17.6877 44.1739 16.8066C42.8394 15.0866 41.0347 13.7267 38.9207 13.1294C37.76 12.8032 36.5399 12.7184 35.3537 12.9599C35.2817 12.9133 35.2139 12.8625 35.1418 12.8159C34.6886 12.5151 34.231 12.2058 33.7608 11.9262C35.5274 11.994 37.2897 12.083 39.0521 12.1973C40.8229 12.3117 42.5895 12.4685 44.356 12.6422C44.4196 12.6973 44.4831 12.7523 44.5467 12.8116C44.4747 13.4683 44.6653 14.1842 44.911 14.7689C45.233 15.5356 45.7329 16.2135 46.3429 16.7811C47.6096 17.9631 49.2788 18.5986 50.931 19.0265C51.8926 19.2764 52.8628 19.4628 53.8329 19.6746C53.9092 19.7212 53.9854 19.7678 54.0617 19.8144C54.1422 19.8653 54.2904 19.8144 54.2608 19.7L54.2608 19.6916C54.3074 19.6238 54.2862 19.5052 54.193 19.467C53.7566 17.9546 52.9814 16.5566 51.8969 15.4086C50.9394 14.3918 49.7659 13.6038 48.4781 13.0785C49.6219 13.2056 50.77 13.3327 51.9138 13.4598C52.3713 13.5106 52.8289 13.5572 53.2864 13.6038C53.4855 13.8707 53.7312 14.0995 53.9812 14.3156C54.3286 14.6121 54.7014 14.8705 55.0954 15.0951C55.8876 15.5483 56.7645 15.8534 57.6669 15.9974C58.5607 16.1414 59.4843 16.133 60.3697 15.9466C61.3525 15.739 62.2549 15.2857 63.1361 14.8112C63.6529 14.5316 64.1698 14.2478 64.7035 13.9978C64.9323 13.8919 65.1695 13.7945 65.4068 13.7097C65.6949 13.6716 65.9787 13.6293 66.2668 13.5827C66.3812 13.5657 66.4151 13.4598 66.3896 13.3751C66.4108 13.3497 66.4193 13.3115 66.4108 13.2819C66.4108 13.2183 66.3769 13.159 66.3007 13.159C66.288 13.159 66.2752 13.159 66.2625 13.159C65.9194 12.9387 65.5466 12.7523 65.178 12.5786C64.7671 12.388 64.3477 12.2228 63.9198 12.0787C63.0556 11.7949 62.1659 11.5958 61.2593 11.4941C59.4504 11.2865 57.5991 11.4433 55.8537 11.9601C55.358 12.1084 54.8751 12.2821 54.4006 12.4897C54.1676 12.5913 53.9388 12.7015 53.71 12.8159C53.4855 12.9303 53.244 13.0362 53.0704 13.2268C53.0704 13.2268 53.0661 13.2353 53.0619 13.2395C50.9437 13.0192 48.8297 12.7735 46.7115 12.5405C46.1142 12.4219 45.5084 12.3583 44.8983 12.3499C43.4029 12.1974 41.9032 12.0575 40.4035 11.9474C39.5647 11.8881 38.7259 11.833 37.8913 11.7864C38.0607 11.7313 38.2302 11.672 38.3954 11.617C38.7894 11.4856 39.1792 11.3501 39.5689 11.2018C39.7129 11.1467 39.8527 11.0916 39.9968 11.0366C41.4287 11.2018 42.9199 11.3247 44.3222 10.9222C45.0127 10.7231 45.6524 10.3799 46.1989 9.91393C46.7242 9.46487 47.1606 8.91837 47.5376 8.34222C47.7494 8.01178 47.9443 7.67286 48.1307 7.32971C48.2747 7.05858 48.4315 6.78321 48.5501 6.49514C48.5628 6.48667 48.5755 6.47819 48.5882 6.46972C48.6179 6.44854 48.6136 6.41888 48.6009 6.3977C48.6179 6.3977 48.6348 6.3977 48.6518 6.38923C48.728 6.37652 48.7323 6.25367 48.6518 6.24943L48.6433 6.24943L48.6433 6.24519C48.6645 6.18588 48.584 6.1308 48.5459 6.18588C48.5331 6.20706 48.5204 6.22825 48.5035 6.24943C48.1476 6.24943 47.7918 6.26637 47.4317 6.27061C47.0165 6.27908 46.5971 6.28755 46.1819 6.30449C45.4236 6.33415 44.6653 6.39771 43.9282 6.57987C43.2249 6.75356 42.5471 7.02469 41.954 7.44409C41.4244 7.81689 40.9712 8.29985 40.6026 8.83363C40.1747 9.45639 39.8485 10.1427 39.607 10.8586C39.6028 10.8756 39.5986 10.8925 39.5986 10.9095C39.2258 11.0493 38.8529 11.1848 38.4759 11.3119C38.0396 11.4602 37.5947 11.5873 37.1626 11.7441C34.0319 11.5704 30.897 11.4772 27.762 11.4348C28.4695 11.0874 29.1685 10.7316 29.8675 10.3672C32.1001 10.8629 34.4894 11.3501 36.7093 10.5197C37.6625 10.1639 38.4801 9.55383 39.1368 8.7828C39.7765 8.03719 40.2637 7.17296 40.6958 6.29603C40.9542 5.77071 41.1957 5.23269 41.4372 4.6989C41.577 4.38541 41.721 4.07191 41.8608 3.75842C41.9837 3.48305 42.1065 3.20768 42.1955 2.92384C42.2124 2.91114 42.2209 2.88995 42.2209 2.86877C42.2378 2.85606 42.2548 2.84335 42.2717 2.8264C42.3056 2.79675 42.276 2.73744 42.2336 2.75015C42.2167 2.71202 42.1531 2.69931 42.1277 2.73744C42.115 2.75439 42.1065 2.77133 42.0938 2.78828C40.9288 2.87724 39.7595 2.96197 38.5945 3.08059C37.4931 3.19074 36.3958 3.35172 35.3283 3.65251C33.4176 4.19477 31.579 5.22422 30.5369 6.97385C29.9904 7.88892 29.6938 8.94378 29.787 10.0114C29.787 10.0495 29.8082 10.0749 29.8294 10.0961C28.9609 10.5494 28.0925 10.9942 27.2155 11.4306C23.0045 11.384 18.7935 11.4306 14.5868 11.5407C14.43 11.5407 14.2733 11.5492 14.1165 11.5534C14.2563 11.4348 14.3877 11.3035 14.519 11.1806C14.7266 10.9857 14.9299 10.7909 15.1375 10.596C15.2985 10.4435 15.4637 10.291 15.6289 10.1385C16.7431 10.1639 17.8658 10.1935 18.9672 9.99018C19.518 9.8885 20.0645 9.73176 20.5686 9.49028C21.0981 9.24034 21.5811 8.90566 22.0259 8.53285C23.6612 7.17296 24.949 5.39791 25.7879 3.44916C26.0251 2.90266 26.2242 2.34345 26.3852 1.77154C26.4657 1.4877 26.5377 1.19962 26.597 0.907307C26.6394 0.695486 26.6987 0.475189 26.7029 0.254896C26.7241 0.23795 26.741 0.221006 26.7622 0.204061C26.8004 0.17017 26.7792 0.119332 26.741 0.110859C26.7538 0.0600223 26.7199 -0.00775155 26.6478 0.00072127C25.5548 0.0854495 24.4619 0.348097 23.4197 0.678537C22.3648 1.01321 21.3354 1.44109 20.361 1.96641C19.4459 2.45783 18.5393 3.02128 17.7853 3.74147C17.0185 4.47437 16.4593 5.35131 16.1246 6.35534C15.7476 7.48646 15.6247 8.68536 15.5103 9.86732C15.5103 9.87155 15.5103 9.88003 15.5103 9.88427C15.4679 9.90121 15.4425 9.9351 15.4298 9.97323C15.3154 10.0791 15.1968 10.1893 15.0824 10.2994C14.8579 10.5113 14.6334 10.7231 14.4088 10.9349C14.1928 11.1383 13.964 11.3374 13.7776 11.5704C11.8204 11.6254 9.85894 11.6847 7.90171 11.7568L7.889 11.7483C7.889 11.7483 7.85088 11.7483 7.8424 11.7568C7.68566 11.761 7.52891 11.7652 7.37216 11.7737C4.93199 11.8627 2.48334 11.9305 0.0473996 12.0957C-0.0161466 12.0999 -0.0161466 12.2101 0.0473996 12.2101C2.72058 12.1931 5.39376 12.0999 8.06693 12.0067C8.47363 12.3244 8.90574 12.6168 9.32091 12.9218C9.55391 13.0912 9.77844 13.2649 10.0114 13.4386C10.0114 13.4429 10.0114 13.4471 10.0114 13.4513C10.613 15.6246 11.2697 17.8657 12.6592 19.6831C13.3158 20.5431 14.1292 21.2506 15.057 21.8013C16.0187 22.3732 17.0693 22.8053 18.1326 23.1485C19.3866 23.5509 20.6957 23.8475 22.0047 24C22.0217 24 22.0386 24 22.0513 23.9915L22.0386 23.9873Z" fill="#295B4D"/>
<path d="M59.5784 15.756C58.5956 15.0316 57.5788 14.3325 56.6977 13.4768C57.2696 13.4853 57.8373 13.498 58.4092 13.5022C60.0741 13.5149 61.739 13.5107 63.3997 13.4937C64.3486 13.481 65.3103 13.4937 66.2592 13.4302C66.3016 13.4302 66.3016 13.3582 66.2592 13.3582C65.4289 13.3412 64.5901 13.3836 63.7598 13.3963C62.8998 13.409 62.0398 13.4175 61.1755 13.4175C60.6545 13.4175 60.1334 13.4175 59.6123 13.4132C59.6801 13.3709 59.7436 13.3243 59.8114 13.2819C59.9258 13.2099 60.0402 13.1379 60.1546 13.0659C60.3876 12.9218 60.6291 12.782 60.8705 12.6464C61.3365 12.3923 61.8068 12.1423 62.2728 11.8797C62.294 11.8669 62.2813 11.8331 62.2558 11.8458C61.7602 12.0703 61.2899 12.3287 60.8239 12.6041C60.5909 12.7397 60.3579 12.8795 60.1249 13.015C60.019 13.0743 59.9173 13.1379 59.8114 13.2014C59.697 13.2692 59.5699 13.3285 59.464 13.4132C58.3541 13.4048 57.2484 13.3963 56.1427 13.3751C56.058 13.3751 55.9775 13.3751 55.8927 13.3709C55.9775 13.337 56.058 13.2946 56.1342 13.2565L56.5706 13.0616L57.4687 12.6591C58.0575 12.3965 58.6506 12.1338 59.231 11.8542C59.2649 11.8373 59.2437 11.7822 59.2056 11.7992C58.6083 12.0449 58.0152 12.3075 57.4263 12.5702C57.134 12.6973 56.8417 12.8286 56.5536 12.9557C56.4096 13.0193 56.2613 13.0828 56.1173 13.1506C55.9817 13.2099 55.8165 13.2565 55.7021 13.3497C55.6979 13.3539 55.6936 13.3624 55.6894 13.3666C55.3632 13.3582 55.037 13.3539 54.7108 13.3455C54.482 13.3412 54.2532 13.3327 54.0245 13.3243C53.7915 13.3158 53.5542 13.2946 53.3212 13.3158C53.2704 13.3158 53.2746 13.3963 53.3212 13.4005C53.7364 13.4598 54.1728 13.4344 54.5922 13.4429C55.0158 13.4514 55.4394 13.4641 55.8631 13.4725C56.0791 13.4768 56.291 13.4768 56.507 13.481C56.507 13.4895 56.5155 13.498 56.524 13.5064C57.4772 14.341 58.4346 15.1841 59.5403 15.8153C59.5699 15.8322 59.5954 15.7856 59.5699 15.7687L59.5784 15.756Z" fill="#295B4D"/>
<path d="M54.0696 19.5856C52.8622 18.3316 51.6252 17.0692 50.2865 15.9381C50.6508 16.0313 51.0194 16.1075 51.3837 16.1923C51.5956 16.2431 51.8074 16.2897 52.015 16.3363C52.231 16.3829 52.4513 16.4507 52.6758 16.4634C52.697 16.4634 52.7097 16.4337 52.6843 16.4253C52.4979 16.3448 52.2946 16.3066 52.0997 16.26C51.8794 16.205 51.6633 16.1499 51.443 16.0991C51.0152 15.9974 50.5873 15.883 50.1552 15.794C50.1425 15.794 50.1298 15.794 50.1213 15.8025C49.185 15.023 48.198 14.3113 47.1346 13.7097C46.4229 13.3073 45.673 12.9387 44.8935 12.6887C44.83 12.6676 44.7919 12.7608 44.8554 12.7862C45.529 13.0488 46.1899 13.3284 46.8296 13.6758C46.9058 13.7182 46.9863 13.7648 47.0626 13.8072C47.0499 13.8156 47.0414 13.8283 47.0456 13.8453C47.2193 14.5697 47.4947 15.2772 47.7658 15.972C48.0412 16.6794 48.3462 17.3784 48.6809 18.0605C48.719 18.1368 48.8376 18.0859 48.7995 18.0097C48.4776 17.3319 48.1725 16.6455 47.8972 15.9423C47.626 15.256 47.41 14.5485 47.1516 13.8538C47.6811 14.1545 48.198 14.4892 48.6936 14.8408C49.9179 15.7178 51.0448 16.726 52.1209 17.7724C52.7521 18.391 53.3706 19.0222 53.9934 19.6492C54.04 19.6958 54.1205 19.6322 54.0739 19.5856L54.0696 19.5856Z" fill="#295B4D"/>
<path d="M40.0691 10.7993C40.3614 10.6976 40.6453 10.5536 40.9291 10.4265C41.1748 10.3164 41.4163 10.2062 41.662 10.0918C41.6408 10.1257 41.6408 10.1723 41.6874 10.1935C42.1577 10.3842 42.6406 10.5282 43.1363 10.6341C43.3862 10.6849 43.6362 10.7273 43.8903 10.7527C44.0217 10.7654 44.153 10.7781 44.2843 10.7866C44.3775 10.7909 44.4707 10.8078 44.547 10.7527C44.5555 10.7442 44.5555 10.7315 44.547 10.7231C44.4665 10.6511 44.3479 10.668 44.2504 10.6595C44.1361 10.6511 44.0217 10.6383 43.9073 10.6256C43.6616 10.596 43.4201 10.5578 43.1786 10.507C42.6872 10.4053 42.2043 10.2571 41.7383 10.0707C41.7298 10.0707 41.7255 10.0707 41.7213 10.0707C41.734 10.0664 41.7467 10.0579 41.7594 10.0537C42.3186 9.79529 42.8736 9.5284 43.4286 9.2615C43.6023 9.17678 43.7717 9.08782 43.9454 9.00309C43.9581 9.02003 43.9836 9.02426 44.0047 9.02003C44.0047 9.02426 44.0132 9.0285 44.0217 9.03273C44.2208 9.09204 44.4453 9.09204 44.6529 9.11323C44.8859 9.13441 45.1231 9.1556 45.3561 9.17678L46.034 9.24033C46.267 9.26151 46.5042 9.29539 46.7372 9.29963C46.8135 9.29963 46.8262 9.19372 46.7499 9.18101C46.5254 9.14712 46.2966 9.13865 46.0721 9.11747L45.3689 9.05815C45.1443 9.03697 44.9156 9.02003 44.691 8.99885C44.4792 8.9819 44.2547 8.94378 44.0429 8.96072L44.0429 8.94801C44.9452 8.50319 45.8349 8.04565 46.7118 7.5627C47.0084 7.40171 47.3007 7.23651 47.5972 7.07129C47.8895 6.90607 48.2073 6.74931 48.4741 6.54596C48.5038 6.52054 48.4741 6.47395 48.4403 6.48666C48.1649 6.60528 47.9065 6.77473 47.6438 6.92301C47.3727 7.07552 47.0973 7.22803 46.8262 7.37631C46.2924 7.66862 45.7586 7.95246 45.2206 8.23206C44.8563 8.4227 44.4877 8.60486 44.1191 8.78703C44.2632 8.42693 44.4157 8.07531 44.5724 7.71946C44.6614 7.51187 44.7546 7.30851 44.8478 7.10093C44.9367 6.89758 45.0384 6.70271 45.0893 6.49089C45.0935 6.4697 45.0596 6.457 45.0511 6.47395C44.924 6.64764 44.8478 6.84251 44.7546 7.03739C44.6571 7.24921 44.5639 7.46527 44.4707 7.67709C44.3013 8.06684 44.1403 8.46507 43.9751 8.85905C43.2973 9.19797 42.611 9.5284 41.9247 9.84189C41.6196 9.98169 41.3104 10.1215 41.0011 10.2571C40.6791 10.4011 40.3402 10.524 40.0267 10.6849C39.9547 10.7231 40.0013 10.829 40.0776 10.8036L40.0691 10.7993Z" fill="#295B4D"/>
<path d="M46.9739 22.7375C45.4869 21.5047 43.9957 20.2761 42.5087 19.0476C41.958 18.5943 41.4072 18.1368 40.8607 17.6835C40.9836 17.6792 41.1022 17.6369 41.2208 17.6241C41.3649 17.6072 41.5131 17.586 41.6614 17.5733C41.9707 17.5394 42.2799 17.5098 42.5934 17.4886C43.2077 17.4462 43.822 17.442 44.4363 17.4166C44.4829 17.4166 44.4786 17.3403 44.4363 17.3361C43.8305 17.3064 43.2119 17.3361 42.6061 17.3827C42.3053 17.4039 42.0003 17.4293 41.6995 17.4632C41.5428 17.4801 41.3903 17.497 41.2335 17.5182C41.0853 17.5352 40.92 17.5182 40.7802 17.5733C40.7675 17.5775 40.7591 17.586 40.7548 17.5987C39.8482 16.8489 38.9374 16.0948 38.0308 15.345C37.891 15.2306 37.7512 15.112 37.6114 14.9976C37.7385 14.9976 37.8783 14.951 37.9969 14.9298C38.1664 14.9001 38.3401 14.8747 38.5095 14.8493C38.8527 14.7985 39.1958 14.7519 39.5432 14.7137C40.2337 14.6375 40.9243 14.6078 41.6148 14.5316C41.6402 14.5316 41.6402 14.485 41.6148 14.485C40.92 14.4596 40.2168 14.5358 39.5263 14.6078C39.1831 14.6459 38.8357 14.6883 38.4926 14.7349C38.3104 14.7603 38.1325 14.7858 37.9503 14.8154C37.8105 14.8366 37.6326 14.8366 37.5097 14.9128L36.7853 14.3113C36.582 14.1418 36.3744 13.9724 36.171 13.8071C35.9634 13.6377 35.7643 13.4555 35.5313 13.3242C35.5101 13.3115 35.489 13.3411 35.5059 13.3581C35.6118 13.4809 35.7304 13.5868 35.8533 13.6928L35.9592 13.8029C35.9592 13.8029 35.9677 13.8029 35.9677 13.7987L35.9168 13.7478C35.9465 13.769 35.9719 13.7944 36.0016 13.8199C36.1922 13.9808 36.3828 14.1376 36.5735 14.2986C36.942 14.6036 37.3106 14.9086 37.6792 15.2136L38.6663 16.0313C38.8611 16.8065 39.1365 17.5648 39.4076 18.3147C39.6915 19.1069 39.9796 19.9033 40.3269 20.6701C40.3481 20.721 40.4244 20.6871 40.4074 20.6362C40.1109 19.8567 39.7889 19.0857 39.5051 18.2977C39.2424 17.5691 39.0179 16.8319 38.7552 16.1033L39.9075 17.0565C41.403 18.2935 42.8942 19.5305 44.3897 20.7676C45.2285 21.4623 46.0673 22.1571 46.9061 22.8519C46.9696 22.907 47.0501 22.801 46.9866 22.7502L46.9739 22.7375Z" fill="#295B4D"/>
<path d="M29.9093 10.1808C31.5488 9.3335 33.1713 8.46079 34.7685 7.54149C35.1413 7.32544 35.5141 7.10938 35.8869 6.88908C36.0267 6.97381 36.2046 6.98229 36.3656 7.01194C36.535 7.04583 36.7045 7.07549 36.874 7.10938C37.2383 7.17717 37.6026 7.24071 37.967 7.29579C38.3228 7.35086 38.6829 7.40169 39.0388 7.44405C39.2167 7.46523 39.3989 7.48643 39.5768 7.50761C39.7208 7.52032 39.9242 7.57963 40.0555 7.50761C40.0724 7.49913 40.0767 7.47795 40.0597 7.46524C39.9454 7.38051 39.7547 7.39323 39.6149 7.37628C39.437 7.3551 39.2548 7.33814 39.0769 7.31272C38.7168 7.27036 38.3609 7.21953 38.0051 7.16446C37.6577 7.10939 37.3103 7.05007 36.9629 6.98652C36.785 6.95263 36.6071 6.91874 36.4334 6.88061C36.3105 6.8552 36.1749 6.80436 36.0436 6.79165C37.1959 6.10535 38.3313 5.39786 39.4624 4.67767C39.903 4.39807 40.3393 4.11423 40.7757 3.83039C41.2078 3.54655 41.6653 3.27543 42.0678 2.95346C42.0932 2.93228 42.0678 2.88144 42.0339 2.89839C41.6442 3.11445 41.2756 3.38558 40.9028 3.62705C40.5215 3.87276 40.1402 4.12271 39.759 4.36842C39.043 4.82596 38.3186 5.27501 37.5899 5.71136C37.645 5.55038 37.6662 5.36821 37.7043 5.20723C37.7509 4.99964 37.7975 4.79206 37.8441 4.58871C37.9331 4.18202 38.039 3.77956 38.0983 3.36862C38.1068 3.31779 38.022 3.29237 38.0051 3.34321C37.8865 3.73296 37.806 4.13118 37.7128 4.52517C37.6662 4.72428 37.6196 4.92339 37.5772 5.1225C37.5306 5.32162 37.4501 5.53767 37.4416 5.74526C37.4416 5.76644 37.4501 5.78338 37.4628 5.79609C37.4501 5.80457 37.4332 5.81304 37.4205 5.82151C36.1029 6.60948 34.7727 7.37627 33.434 8.12612C33.434 8.12612 33.434 8.12189 33.434 8.11765C33.5102 7.44406 33.6119 6.7747 33.739 6.10958C33.8661 5.44447 34.0313 4.78783 34.1754 4.12694C34.1838 4.08458 34.116 4.0634 34.0991 4.10577C33.8915 4.74547 33.7475 5.40634 33.6162 6.06722C33.4806 6.74081 33.3662 7.41864 33.273 8.09646C33.2688 8.14306 33.2984 8.17272 33.3323 8.1812C33.0866 8.31676 32.8451 8.46079 32.5994 8.59636C31.6928 9.09625 30.7778 9.5792 29.8585 10.0537C29.778 10.096 29.833 10.2231 29.9135 10.1808L29.9093 10.1808Z" fill="#295B4D"/>
<path d="M26.1053 20.8354C26.0672 20.7211 25.9867 20.6194 25.9232 20.5219C25.8512 20.4076 25.7791 20.2974 25.7071 20.183C25.5715 19.9712 25.4402 19.7594 25.3089 19.5476C25.0378 19.1027 24.7709 18.6537 24.5124 18.2004C24.2625 17.7556 24.0168 17.3107 23.7795 16.8574C23.555 16.4253 23.3432 15.9847 23.1102 15.5569C23.6397 15.8322 24.1693 16.1076 24.6946 16.3872C26.4146 17.2938 28.1346 18.2046 29.8588 19.1155C30.3375 19.3654 30.812 19.6196 31.2907 19.8695C31.7821 20.128 32.2693 20.4076 32.7735 20.6448C32.8328 20.6744 32.8878 20.577 32.8328 20.5431C32.4261 20.3059 31.9982 20.0941 31.5788 19.8738C31.1467 19.6492 30.7188 19.4205 30.2867 19.1959C29.4182 18.7384 28.5497 18.2851 27.6813 17.8276C27.3127 17.6327 26.9441 17.4378 26.5756 17.2472C27.1856 17.1413 27.7914 17.0354 28.4015 16.9337C28.7192 16.8786 29.0412 16.8236 29.3589 16.7685C29.6682 16.7134 30.0028 16.6922 30.2994 16.5906C30.3417 16.5778 30.3163 16.5185 30.2782 16.5185C29.9605 16.5228 29.63 16.6117 29.3165 16.6626C28.9946 16.7134 28.6768 16.7685 28.3549 16.8236C27.7152 16.9295 27.0755 17.0354 26.4358 17.1413C26.4231 17.1413 26.4146 17.1498 26.4061 17.1582C25.4233 16.6414 24.4404 16.1245 23.4618 15.6119C23.5508 15.5611 23.6313 15.5018 23.716 15.4467C23.8219 15.3832 23.9278 15.3196 24.0337 15.2561C24.2583 15.1205 24.487 14.9807 24.7116 14.8451C25.1649 14.5698 25.6182 14.3029 26.0545 14.0063C26.0842 13.9852 26.0545 13.9301 26.0206 13.947C25.5673 14.1885 25.1267 14.4639 24.6861 14.7308C24.4574 14.8663 24.2328 15.0019 24.0041 15.1417C23.8982 15.2052 23.7923 15.2688 23.6863 15.3323C23.5677 15.4044 23.4322 15.4594 23.322 15.5442C23.0509 15.4044 22.784 15.2603 22.5129 15.1205C21.5342 14.6079 20.5599 14.0826 19.5643 13.6039C19.5389 13.5912 19.5262 13.6293 19.5474 13.642C20.6827 14.2944 21.8435 14.9002 23.0043 15.506C23.1992 15.9847 23.4406 16.4465 23.6779 16.904C23.9193 17.3701 24.1735 17.8318 24.432 18.2936C24.6819 18.7342 24.9361 19.1705 25.203 19.6026C25.3385 19.8229 25.4741 20.0432 25.6139 20.2593C25.6859 20.3737 25.758 20.4838 25.83 20.5982C25.8935 20.6956 25.9571 20.8058 26.046 20.8863C26.0799 20.9159 26.118 20.8736 26.1053 20.8397L26.1053 20.8354Z" fill="#295B4D"/>
<path d="M15.7824 9.57926C16.4221 9.11749 17.0364 8.61337 17.6507 8.11771C17.9261 8.21514 18.248 8.21938 18.5361 8.24903C18.8665 8.28716 19.197 8.32528 19.5274 8.35917L20.4933 8.46508C20.8068 8.49897 21.133 8.57099 21.4465 8.55828C21.5016 8.55828 21.5143 8.46509 21.4592 8.44815C21.1627 8.36765 20.8365 8.36342 20.5357 8.32953C20.2052 8.2914 19.8748 8.25327 19.5444 8.21938C19.2224 8.18125 18.9004 8.14736 18.5785 8.11347C18.3073 8.08381 18.015 8.02449 17.7397 8.04144C17.8159 7.98213 17.8922 7.91858 17.9684 7.85504C18.6971 7.26618 19.4173 6.66885 20.129 6.06304C20.6331 5.63516 21.133 5.19881 21.6329 4.76246C21.7473 4.78788 21.8786 4.76246 21.993 4.76246C22.1582 4.75822 22.3235 4.75398 22.4887 4.74551C22.8106 4.7328 23.1326 4.72433 23.4588 4.70314C23.7723 4.6862 24.0858 4.66502 24.3993 4.64384C24.5645 4.63113 24.7297 4.62266 24.895 4.60572C25.0009 4.59724 25.1661 4.62266 25.2339 4.52522C25.2381 4.51675 25.2339 4.50827 25.2254 4.50827L25.2085 4.50827C25.2085 4.50827 25.2 4.48285 25.2 4.47862C25.1915 4.47014 25.1619 4.47015 25.1534 4.47015C25.0898 4.45744 25.0178 4.47438 24.9543 4.47862C24.7891 4.48709 24.6238 4.4998 24.4586 4.50827C24.1366 4.52946 23.8147 4.55064 23.4927 4.56335C23.1792 4.58029 22.8657 4.59723 22.5522 4.60994C22.387 4.61842 22.2218 4.6269 22.0566 4.63113C21.9676 4.63113 21.8702 4.63113 21.777 4.63113C22.6242 3.88552 23.4673 3.13567 24.3019 2.37312C24.6874 2.0215 25.0687 1.66564 25.4499 1.30555C25.8227 0.953924 26.2294 0.610776 26.5641 0.221026C26.5853 0.195607 26.5472 0.161717 26.526 0.182899C26.1616 0.466739 25.8397 0.805649 25.5008 1.11914C25.1619 1.43264 24.8187 1.75037 24.4798 2.05963C23.7935 2.68662 23.103 3.30089 22.4039 3.91094C21.849 4.39813 21.2898 4.87684 20.7263 5.35132C20.7729 4.81753 20.8068 4.28374 20.8238 3.74995C20.8322 3.47035 20.8365 3.19075 20.8322 2.91115C20.8322 2.64849 20.8407 2.37312 20.7899 2.1147C20.7856 2.08081 20.7348 2.08081 20.7306 2.1147C20.6967 2.39007 20.7136 2.67391 20.7136 2.94928C20.7136 3.22041 20.7094 3.49153 20.7009 3.76266C20.684 4.31339 20.6458 4.8599 20.595 5.41063C20.595 5.42758 20.595 5.44029 20.6077 5.453C20.1375 5.85122 19.663 6.24944 19.1885 6.64343C19.125 6.04609 19.0614 5.453 18.9936 4.85566C18.9597 4.54217 18.9259 4.22868 18.8877 3.91942C18.8538 3.61016 18.8454 3.27548 18.7479 2.97893C18.7394 2.95352 18.6971 2.96198 18.6929 2.9874C18.659 3.29242 18.7183 3.61016 18.7479 3.91518C18.7776 4.23715 18.8072 4.55911 18.8369 4.88108C18.9004 5.51231 18.9597 6.14777 19.0233 6.779C18.731 7.02047 18.4429 7.26618 18.1506 7.50342C17.3414 8.1643 16.5026 8.79129 15.7019 9.46488C15.6342 9.51996 15.7147 9.62163 15.7867 9.57079L15.7824 9.57926Z" fill="#295B4D"/>
<path d="M19.4249 21.1998C20.2087 22.0259 20.9755 22.8732 21.7168 23.7374C21.7804 23.8137 21.9032 23.7205 21.8397 23.6442C20.7255 22.3224 19.5266 21.0812 18.2811 19.8865C18.3404 19.8992 18.3997 19.9077 18.459 19.9204C18.5819 19.9458 18.7005 19.967 18.8234 19.9882L19.5774 20.1237C20.0858 20.2127 20.5984 20.3313 21.1068 20.4033C21.1873 20.4161 21.2 20.2974 21.1237 20.2805C20.6196 20.1703 20.0985 20.1026 19.5902 20.0094C19.3402 19.9628 19.0903 19.9162 18.8361 19.8738C18.7132 19.8526 18.5946 19.8314 18.4717 19.8102C18.3658 19.7933 18.2557 19.7679 18.1455 19.7679C17.9634 19.5942 17.7854 19.4205 17.6033 19.251C17.1246 18.8062 16.6331 18.3699 16.1375 17.942C16.7052 17.8234 17.2898 17.7768 17.8617 17.7005C18.1667 17.6624 18.4675 17.62 18.7725 17.5777C19.0818 17.5353 19.3995 17.5099 19.7045 17.4421C19.7723 17.4251 19.7596 17.3319 19.6876 17.3362C19.3826 17.3489 19.0775 17.4082 18.7768 17.4463C18.4633 17.4887 18.154 17.5311 17.8405 17.5734C17.2305 17.6581 16.6077 17.7768 15.9934 17.8064C15.9892 17.8064 15.985 17.8064 15.9807 17.8064C14.9852 16.9464 13.96 16.1203 12.9009 15.3324C11.9816 14.6503 11.0411 13.9767 10.0582 13.3836C10.0286 13.3667 9.99468 13.409 10.0243 13.4302C10.8589 14.0106 11.702 14.574 12.5196 15.1756C12.9263 15.4722 13.3287 15.7772 13.727 16.0864C13.7185 16.0949 13.71 16.1034 13.7143 16.1203C13.7863 16.6075 13.9007 17.0862 14.0023 17.5692C14.104 18.0437 14.2057 18.5139 14.3073 18.9884C14.5107 19.9416 14.7183 20.899 14.9216 21.8522C14.9386 21.9369 15.0699 21.9157 15.053 21.831C14.8454 20.8778 14.642 19.9204 14.4344 18.9672C14.3328 18.4927 14.2311 18.0225 14.1294 17.548C14.0277 17.0778 13.9345 16.6075 13.8032 16.1415C14.1803 16.4381 14.5573 16.7346 14.9259 17.0396C15.2605 17.315 15.5952 17.5988 15.9257 17.8827C15.9257 17.925 15.9595 17.9674 16.0146 17.9547C16.0231 17.9632 16.0358 17.9716 16.0443 17.9801C16.1248 18.3487 16.2519 18.7045 16.3578 19.0646C16.4806 19.4671 16.6035 19.8695 16.7263 20.272C16.8492 20.6745 16.9721 21.0769 17.0949 21.4794L17.2728 22.0598C17.3364 22.2631 17.3787 22.4961 17.4719 22.6868C17.5016 22.7461 17.5906 22.7207 17.5821 22.6571C17.5567 22.4665 17.4719 22.2716 17.4169 22.0852L17.2305 21.4794C17.1076 21.0769 16.9848 20.6745 16.8619 20.272C16.739 19.8695 16.6162 19.4671 16.4891 19.0646C16.3917 18.7511 16.3069 18.4249 16.1925 18.1157C17.311 19.0943 18.387 20.1195 19.4122 21.1998L19.4249 21.1998Z" fill="#295B4D"/>
<path d="M14.2054 16.1711C14.4427 16.1118 14.6799 15.9635 14.9044 15.8618C15.129 15.7559 15.3535 15.6542 15.578 15.5483C16.044 15.3323 16.5227 15.1374 16.976 14.8959C17.0311 14.8663 16.9972 14.7858 16.9379 14.8069C16.4592 14.9849 15.9932 15.2136 15.523 15.417L14.8409 15.7135C14.6164 15.811 14.3495 15.8915 14.1461 16.0313C14.0826 16.0736 14.1292 16.188 14.2054 16.1668L14.2054 16.1711Z" fill="#295B4D"/>
</svg>
