<svg width="32" height="25" viewBox="0 0 32 25" fill="none" xmlns="http://www.w3.org/2000/svg">
<path d="M7.22051 25C4.81368 25 3.00855 24.2475 1.80513 22.7425C0.60171 21.1817 0 19.2586 0 16.9732C0 14.9108 0.437607 12.8763 1.31282 10.8696C2.18803 8.80714 3.44615 6.85619 5.08718 5.01672C6.72821 3.12151 8.67009 1.44927 10.9128 0L12.8 2.59197C10.6667 4.20847 9.08034 5.88071 8.04103 7.60869C7.00171 9.33668 6.4547 11.0647 6.4 12.7926H8.20513C9.46325 12.7926 10.5299 13.0156 11.4051 13.4615C12.335 13.8517 13.0188 14.4649 13.4564 15.301C13.9487 16.1371 14.1949 17.1405 14.1949 18.311C14.1949 20.1505 13.5385 21.7391 12.2256 23.0769C10.9675 24.359 9.29914 25 7.22051 25ZM25.0256 25C22.6188 25 20.8137 24.2475 19.6103 22.7425C18.4068 21.1817 17.8051 19.2586 17.8051 16.9732C17.8051 14.9108 18.2427 12.8763 19.1179 10.8696C19.9932 8.80714 21.2513 6.85619 22.8923 5.01672C24.5333 3.12151 26.4752 1.44927 28.7179 0L30.6051 2.59197C28.4718 4.20847 26.8855 5.88071 25.8462 7.60869C24.8068 9.33668 24.2598 11.0647 24.2051 12.7926H26.0103C27.2684 12.7926 28.335 13.0156 29.2103 13.4615C30.1402 13.8517 30.8239 14.4649 31.2615 15.301C31.7538 16.0814 32 17.0847 32 18.311C32 20.1505 31.3436 21.7391 30.0308 23.0769C28.7726 24.359 27.1043 25 25.0256 25Z" fill="#EAA48F"/>
</svg>
